<svg width="26" height="32" viewBox="0 0 26 32" fill="none" xmlns="http://www.w3.org/2000/svg">
<path d="M25.5067 20.0558C25.5067 26.6524 20.1654 32 13.5767 32C6.98798 32 1.64675 26.6524 1.64675 20.0558C1.64675 13.4592 6.98798 8.11161 13.5767 8.11161C20.1654 8.11161 25.5067 13.4592 25.5067 20.0558Z" fill="url(#paint0_linear_2693_55021)"/>
<path d="M10.0092 26.0279L15.4313 15.4752H17.185L11.7629 26.0279H10.0092ZM12.0134 18.3418C12.0134 19.2376 11.8106 19.9543 11.405 20.4918C10.9993 21.0293 10.4565 21.298 9.77652 21.298C9.06073 21.298 8.50002 21.0412 8.0944 20.5276C7.68878 20.0021 7.48597 19.2794 7.48597 18.3597C7.48597 17.4878 7.68878 16.801 8.0944 16.2994C8.51195 15.7977 9.07266 15.5469 9.77652 15.5469C10.4327 15.5469 10.9695 15.8096 11.3871 16.3352C11.8046 16.8488 12.0134 17.5177 12.0134 18.3418ZM10.7071 18.3776C10.7071 17.9118 10.6116 17.5236 10.4207 17.2131C10.2418 16.8906 10.0151 16.7293 9.74073 16.7293C9.46635 16.7293 9.23371 16.8846 9.04283 17.1952C8.86388 17.5057 8.77441 17.8999 8.77441 18.3776C8.77441 18.8912 8.86388 19.3153 9.04283 19.6497C9.22178 19.9722 9.45442 20.1334 9.74073 20.1334C10.0271 20.1334 10.2597 19.9722 10.4386 19.6497C10.6176 19.3153 10.7071 18.8912 10.7071 18.3776ZM19.6008 23.1255C19.6008 24.0213 19.398 24.7379 18.9924 25.2754C18.5868 25.8129 18.044 26.0817 17.364 26.0817C16.6482 26.0817 16.0875 25.8189 15.6819 25.2933C15.2762 24.7678 15.0734 24.0511 15.0734 23.1434C15.0734 22.2715 15.2762 21.5847 15.6819 21.083C16.0994 20.5694 16.6601 20.3126 17.364 20.3126C18.0201 20.3126 18.557 20.5754 18.9745 21.1009C19.3921 21.6265 19.6008 22.3013 19.6008 23.1255ZM18.2766 23.1613C18.2766 22.6955 18.1871 22.3073 18.0082 21.9967C17.8292 21.6742 17.6026 21.513 17.3282 21.513C17.0419 21.513 16.8092 21.6683 16.6303 21.9788C16.4513 22.2774 16.3619 22.6716 16.3619 23.1613C16.3619 23.6749 16.4513 24.0989 16.6303 24.4334C16.8092 24.7558 17.0419 24.9171 17.3282 24.9171C17.6026 24.9171 17.8292 24.7558 18.0082 24.4334C18.1871 24.0989 18.2766 23.6749 18.2766 23.1613Z" fill="white"/>
<path d="M20.7009 6.92159C18.011 3.76619 14.8551 1.48652 11.2135 0.156807C10.9609 0.0634694 10.6344 -0.180513 10.4747 0.232931C10.3194 0.637225 10.6942 0.730509 10.8994 0.889354C11.6576 1.47194 12.3813 2.11665 12.9241 2.95198C15.8348 7.43303 16.4577 12.0894 14.5212 16.915C14.4156 17.0674 14.3184 17.2255 14.2038 17.3696C13.5751 18.1605 12.8576 18.1593 12.1456 17.3469C11.9424 17.1159 11.7602 16.8502 11.6069 16.5716C10.9057 15.305 10.5596 13.9324 10.4871 12.4857C10.4763 12.2762 10.5328 12.033 10.2727 11.9284C10.0224 11.8265 9.92226 12.0438 9.81085 12.2004C8.80537 13.6339 8.03047 15.1824 8.16841 17.1722C8.1818 17.3652 8.15718 17.5362 7.96028 17.577C7.76337 17.6178 7.6632 17.4635 7.58763 17.2973C7.25817 16.5815 7.14008 15.845 7.2964 15.082C7.41213 14.5261 7.59566 14.0002 7.80034 13.4848C8.45282 11.8381 8.91682 10.1318 8.84818 8.2487C8.76983 6.08931 7.66701 4.39659 5.92748 3.76494C5.73144 3.694 5.52504 3.60984 5.41687 3.85846C5.31949 4.07772 5.48163 4.21327 5.62715 4.35581C7.19438 5.86617 7.50592 7.32744 6.69107 9.32449C6.15713 10.6295 5.35287 11.7025 4.47327 12.7075C3.88492 13.3789 3.31536 14.0693 2.84187 14.8541C1.01637 17.8664 0.644545 21.0594 2.49934 24.5232C2.5939 24.7003 2.71761 24.8831 2.53582 25.0527C2.38404 25.1959 2.23528 25.0674 2.10077 24.9672C1.42176 24.4674 0.961246 23.7619 0.611275 22.9586C0.520381 22.7513 0.416317 22.6086 0.201708 22.6699C-0.0215377 22.7335 -0.0154947 22.9337 0.016025 23.1432C0.102596 23.7233 0.248972 24.2852 0.462927 24.832C1.46728 27.3948 3.27957 28.9606 5.46299 30.0658C5.58778 30.1288 5.72682 30.1668 5.83586 30.2578C7.1453 31.3098 8.61776 31.6952 10.1332 31.865C12.9125 32.1773 15.5669 31.7178 18.132 30.7478C18.7979 30.7014 19.3489 30.3291 19.9227 30.0359C22.1673 28.8974 24.0092 27.2667 25.0721 24.6818C26.0683 22.2657 26.229 19.6961 25.7136 17.0189C24.9673 13.1276 23.1712 9.81838 20.7009 6.92159Z" fill="#F7B431" fill-opacity="0.5"/>
<defs>
<linearGradient id="paint0_linear_2693_55021" x1="18.9583" y1="32" x2="4.38485" y2="2.08601" gradientUnits="userSpaceOnUse">
<stop stop-color="#F52715"/>
<stop offset="1" stop-color="#FD7C3D"/>
</linearGradient>
</defs>
</svg>
